<svg viewBox="0 0 100 100" fill="none" xmlns="http://www.w3.org/2000/svg">
  <defs>
    <linearGradient id="logoGradient" x1="0%" y1="0%" x2="100%" y2="100%">
      <stop offset="0%" stop-color="#667eea" />
      <stop offset="100%" stop-color="#764ba2" />
    </linearGradient>
    <linearGradient id="logoGradient2" x1="0%" y1="0%" x2="100%" y2="100%">
      <stop offset="0%" stop-color="#f093fb" />
      <stop offset="100%" stop-color="#f5576c" />
    </linearGradient>
  </defs>
  
  <!-- Outer circle -->
  <circle
    cx="50"
    cy="50"
    r="45"
    fill="url(#logoGradient)"
  />
  
  <!-- Inner decorative circle -->
  <circle
    cx="50"
    cy="50"
    r="35"
    fill="none"
    stroke="rgba(255,255,255,0.3)"
    stroke-width="2"
  />
  
  <!-- Central elements representing data structures -->
  <!-- Tree structure -->
  <g transform="translate(30, 25)">
    <!-- Root node -->
    <circle cx="20" cy="10" r="4" fill="white" />
    <!-- Child nodes -->
    <circle cx="10" cy="25" r="3" fill="rgba(255,255,255,0.9)" />
    <circle cx="30" cy="25" r="3" fill="rgba(255,255,255,0.9)" />
    <!-- Connections -->
    <line x1="20" y1="14" x2="10" y2="22" stroke="white" stroke-width="2" stroke-linecap="round" />
    <line x1="20" y1="14" x2="30" y2="22" stroke="white" stroke-width="2" stroke-linecap="round" />
  </g>
  
  <!-- Array representation -->
  <g transform="translate(25, 50)">
    <rect x="0" y="0" width="8" height="8" fill="white" rx="1" />
    <rect x="10" y="0" width="8" height="8" fill="rgba(255,255,255,0.8)" rx="1" />
    <rect x="20" y="0" width="8" height="8" fill="rgba(255,255,255,0.6)" rx="1" />
    <rect x="30" y="0" width="8" height="8" fill="rgba(255,255,255,0.4)" rx="1" />
    <rect x="40" y="0" width="8" height="8" fill="rgba(255,255,255,0.9)" rx="1" />
  </g>
  
  <!-- Algorithm flow arrows -->
  <g transform="translate(70, 35)">
    <path d="M0 0 L10 5 L0 10 Z" fill="url(#logoGradient2)" />
    <path d="M0 15 L10 20 L0 25 Z" fill="url(#logoGradient2)" />
  </g>
</svg>